<svg class="svg-icon" style="width: 1em; height: 1em;vertical-align: middle;fill: currentColor;overflow: hidden;" viewBox="0 0 1024 1024" version="1.1" xmlns="http://www.w3.org/2000/svg"><path d="M175.01902 897.407626A509.738454 509.738454 0 0 0 512.000213 1023.999573a510.293121 510.293121 0 0 0 337.15186-126.591947c80.0853-81.578633-184.149257-371.583845-337.15186-487.12513-152.831936 115.541285-417.237159 405.546498-336.981193 487.12513z m476.159802-614.655744c106.666622 126.335947 319.3172 440.02115 259.242559 550.911771A509.525121 509.525121 0 0 0 1024 512.170453a509.866454 509.866454 0 0 0-152.319937-364.202515s-1.152-0.938666-3.498665-1.791999a35.157319 35.157319 0 0 0-11.989328-1.919999c-25.258656 0-84.693298 18.517326-205.013248 138.495942zM155.904362 146.175939c-2.431999 0.853333-3.498665 1.749333-3.669332 1.791999A510.122454 510.122454 0 0 0 0.000427 512.170453c0 121.770616 42.581316 233.514569 113.535952 321.407866-59.775975-111.14662 152.703936-424.575823 259.413226-550.826437-120.31995-120.021283-179.882592-138.453276-205.055915-138.453275a30.93332 30.93332 0 0 0-11.989328 1.962665v-0.085333zM512.000213 151.50927S386.346932 77.994634 288.21364 74.495969c-38.527984-1.407999-62.037307 12.586661-64.895973 14.463994C314.837629 27.562655 412.117588 0 511.317547 0H512.000213c99.583959 0 196.479918 27.562655 288.682547 88.959963-2.901332-1.962666-26.239989-15.871993-64.853307-14.463994C637.696161 77.994634 512.000213 151.25327 512.000213 151.25327v0.256z" fill="" /></svg>